<svg width="1376" height="768" viewBox="0 0 1376 768" fill="none" xmlns="http://www.w3.org/2000/svg">
  <defs>
    <linearGradient id="bg1" x1="72" y1="64" x2="1306" y2="704" gradientUnits="userSpaceOnUse">
      <stop stop-color="#F8FBFF"/>
      <stop offset="1" stop-color="#E9F2FF"/>
    </linearGradient>
    <linearGradient id="panel1" x1="0" y1="0" x2="1" y2="1">
      <stop stop-color="#173E74"/>
      <stop offset="1" stop-color="#2E6EC8"/>
    </linearGradient>
    <linearGradient id="accent1" x1="0" y1="0" x2="1" y2="1">
      <stop stop-color="#4C8EEA"/>
      <stop offset="1" stop-color="#8CC1FF"/>
    </linearGradient>
    <filter id="shadow1" x="0" y="0" width="1376" height="768" filterUnits="userSpaceOnUse" color-interpolation-filters="sRGB">
      <feDropShadow dx="0" dy="18" stdDeviation="22" flood-color="#17345F" flood-opacity="0.12"/>
    </filter>
    <style>
      .title { font: 700 38px 'Pretendard','Noto Sans KR',sans-serif; fill: #122B54; }
      .subtitle { font: 500 19px 'Pretendard','Noto Sans KR',sans-serif; fill: #466183; }
      .kicker { font: 700 17px 'Pretendard','Noto Sans KR',sans-serif; fill: #1A63CA; letter-spacing: 0.08em; text-transform: uppercase; }
      .section { font: 700 22px 'Pretendard','Noto Sans KR',sans-serif; fill: #15345F; }
      .body { font: 500 18px 'Pretendard','Noto Sans KR',sans-serif; fill: #3C5578; }
      .body-strong { font: 700 18px 'Pretendard','Noto Sans KR',sans-serif; fill: #143964; }
      .label-dark { font: 700 22px 'Pretendard','Noto Sans KR',sans-serif; fill: #FFFFFF; }
      .label-mid { font: 700 18px 'Pretendard','Noto Sans KR',sans-serif; fill: #173C69; }
      .pill { font: 700 17px 'Pretendard','Noto Sans KR',sans-serif; fill: #184D95; }
      .tiny { font: 600 15px 'Pretendard','Noto Sans KR',sans-serif; fill: #5C7396; }
      .mono { font: 600 15px 'JetBrains Mono','Consolas',monospace; fill: #163A66; }
    </style>
  </defs>

  <rect width="1376" height="768" rx="32" fill="url(#bg1)"/>
  <rect x="56" y="48" width="1264" height="672" rx="32" fill="#FFFFFF" filter="url(#shadow1)"/>
  <rect x="56" y="48" width="1264" height="672" rx="32" stroke="#D4E1F7"/>

  <text x="96" y="110" class="kicker">NotebookLM Concept Deck</text>
  <text x="96" y="160" class="title">Chat UI | 질문 → 리서치 → 초안 → 수정의 가장 빠른 협업 루프</text>
  <text x="96" y="198" class="subtitle">Gemini와 NotebookLM으로 사람의 의도를 빠르게 구조화하고, 리서치와 초안을 반복적으로 다듬는 단계</text>

  <rect x="94" y="248" width="284" height="356" rx="28" fill="#F7FAFF" stroke="#D7E3F7"/>
  <text x="126" y="292" class="section">대화형 협업 시작점</text>
  <rect x="126" y="330" width="220" height="54" rx="16" fill="#E9F2FF" stroke="#C8DAF7"/>
  <text x="146" y="365" class="body-strong">질문: 시장 변화 핵심 3가지만 요약해줘</text>
  <rect x="146" y="412" width="164" height="42" rx="16" fill="#143D72"/>
  <text x="170" y="439" class="label-dark">Gemini</text>
  <rect x="146" y="470" width="184" height="42" rx="16" fill="#2E6EC8"/>
  <text x="171" y="497" class="label-dark">NotebookLM</text>
  <rect x="126" y="540" width="220" height="36" rx="14" fill="#F2F6FD"/>
  <text x="144" y="563" class="tiny">빠른 질문 · 브레인스토밍 · source-grounded research</text>

  <path d="M460 410C460 323.961 529.961 254 616 254H763C849.039 254 919 323.961 919 410C919 496.039 849.039 566 763 566H616C529.961 566 460 496.039 460 410Z" fill="#F8FBFF" stroke="#D7E3F7"/>
  <circle cx="688" cy="410" r="114" fill="#FFFFFF" stroke="#20497E" stroke-width="18"/>
  <circle cx="688" cy="410" r="146" fill="none" stroke="#5D93DE" stroke-width="20" stroke-dasharray="210 38"/>
  <text x="629" y="392" class="label-mid">사람이 목표와 맥락을</text>
  <text x="623" y="422" class="label-mid">정하고 AI가 반복 속도를</text>
  <text x="651" y="452" class="label-mid">올리는 구조</text>

  <rect x="624" y="244" width="128" height="64" rx="28" fill="url(#panel1)"/>
  <text x="665" y="285" class="label-dark">질문</text>
  <rect x="774" y="360" width="136" height="64" rx="28" fill="url(#panel1)"/>
  <text x="808" y="401" class="label-dark">리서치</text>
  <rect x="626" y="512" width="128" height="64" rx="28" fill="url(#panel1)"/>
  <text x="660" y="553" class="label-dark">초안</text>
  <rect x="464" y="360" width="144" height="64" rx="28" fill="url(#panel1)"/>
  <text x="492" y="401" class="label-dark">피드백</text>

  <path d="M538 329C567 301 604 284 644 279" stroke="#4C8EEA" stroke-width="8" stroke-linecap="round"/>
  <path d="M726 279C765 284 802 301 832 330" stroke="#4C8EEA" stroke-width="8" stroke-linecap="round"/>
  <path d="M842 444C824 483 792 516 754 535" stroke="#4C8EEA" stroke-width="8" stroke-linecap="round"/>
  <path d="M620 536C582 518 551 485 533 445" stroke="#4C8EEA" stroke-width="8" stroke-linecap="round"/>

  <rect x="980" y="248" width="300" height="356" rx="28" fill="#F7FAFF" stroke="#D7E3F7"/>
  <text x="1012" y="292" class="section">산출물과 수정 요청</text>
  <rect x="1012" y="334" width="236" height="72" rx="18" fill="#FFFFFF" stroke="#C9DAF7"/>
  <text x="1036" y="374" class="body-strong">요약 메모</text>
  <text x="1138" y="374" class="body">핵심 3줄 정리</text>
  <rect x="1012" y="426" width="236" height="72" rx="18" fill="#FFFFFF" stroke="#C9DAF7"/>
  <text x="1036" y="466" class="body-strong">보고서 초안</text>
  <text x="1140" y="466" class="body">표·문단·슬라이드 초안</text>
  <rect x="1012" y="518" width="236" height="72" rx="18" fill="#FFFFFF" stroke="#C9DAF7"/>
  <text x="1036" y="558" class="body-strong">수정 루프</text>
  <text x="1138" y="558" class="body">표현·근거·톤 재조정</text>

  <path d="M378 424H446" stroke="url(#accent1)" stroke-width="10" stroke-linecap="round"/>
  <path d="M920 424H978" stroke="url(#accent1)" stroke-width="10" stroke-linecap="round"/>

  <rect x="96" y="644" width="178" height="44" rx="22" fill="#EBF4FF" stroke="#C8DAF7"/>
  <text x="152" y="673" class="pill">Gemini</text>
  <rect x="290" y="644" width="202" height="44" rx="22" fill="#EBF4FF" stroke="#C8DAF7"/>
  <text x="337" y="673" class="pill">NotebookLM</text>
  <rect x="508" y="644" width="182" height="44" rx="22" fill="#EBF4FF" stroke="#C8DAF7"/>
  <text x="551" y="673" class="pill">Chat UI</text>
  <text x="870" y="671" class="mono">Human-in-the-loop collaboration loop</text>
</svg>
